<?xml version="1.0" standalone="no"?>
<!DOCTYPE svg PUBLIC "-//W3C//DTD SVG 20010904//EN"
 "http://www.w3.org/TR/2001/REC-SVG-20010904/DTD/svg10.dtd">
<svg version="1.0" xmlns="http://www.w3.org/2000/svg"
 width="1024.000000pt" height="1024.000000pt" viewBox="0 0 1024.000000 1024.000000"
 preserveAspectRatio="xMidYMid meet">
<metadata>
Created by potrace 1.11, written by Peter Selinger 2001-2013
</metadata>
<g transform="translate(0.000000,1024.000000) scale(0.100000,-0.100000)"
fill="#000000" stroke="none">
<path d="M0 5120 l0 -5120 5120 0 5120 0 0 5120 0 5120 -5120 0 -5120 0 0
-5120z m5635 3721 c747 -102 1423 -388 1990 -840 196 -157 459 -420 611 -611
101 -127 267 -378 349 -524 108 -195 223 -453 208 -466 -4 -4 -291 -205 -638
-446 -375 -261 -638 -438 -650 -437 -11 1 -552 159 -1203 351 l-1183 349
-1182 -348 c-650 -192 -1191 -350 -1202 -351 -13 -1 -266 169 -658 441 -566
394 -637 446 -631 465 18 57 133 305 191 411 422 767 1068 1354 1884 1709 350
152 795 269 1164 305 61 6 124 13 140 15 17 2 172 3 345 1 250 -2 346 -7 465
-24z m-3676 -3441 l453 -315 -3 -622 -4 -623 -501 0 -501 0 -41 133 c-73 230
-124 476 -154 742 -16 142 -16 588 1 730 13 120 60 405 68 417 5 9 6 8 682
-462z m7030 330 c42 -230 54 -373 55 -650 0 -431 -54 -765 -195 -1202 l-12
-38 -499 0 -498 0 2 627 3 627 555 388 c355 247 557 382 561 375 4 -7 16 -64
28 -127z m-2767 -384 c588 -174 1071 -316 1074 -316 3 0 4 -287 1 -637 -5
-699 -6 -722 -68 -906 -153 -459 -530 -788 -1032 -899 l-102 -23 -975 0 -975
0 -103 23 c-147 33 -241 66 -365 129 -371 189 -616 509 -709 925 -20 88 -21
130 -25 739 l-5 646 209 62 c114 33 602 178 1083 321 496 147 886 258 900 255
14 -2 505 -146 1092 -319z m-3686 -2132 c105 -267 317 -554 543 -736 327 -264
707 -410 1136 -438 208 -13 1602 -13 1810 0 432 28 804 171 1132 436 233 189
435 460 542 729 l40 100 430 3 431 2 -51 -87 c-165 -284 -362 -537 -603 -778
-441 -441 -953 -757 -1549 -956 -263 -88 -610 -161 -902 -190 -163 -17 -592
-17 -750 0 -386 39 -759 128 -1099 261 -846 332 -1530 920 -1980 1703 l-27 47
429 0 430 0 38 -96z"/>
<path d="M3479 7392 c-211 -55 -355 -270 -321 -478 31 -187 176 -330 371 -364
262 -47 522 167 521 430 -1 150 -104 312 -244 380 -106 52 -211 62 -327 32z"/>
<path d="M6540 7399 c-153 -30 -294 -165 -336 -323 -63 -238 110 -485 371
-528 183 -31 387 76 470 246 157 321 -140 676 -505 605z"/>
</g>
</svg>
